<?xml version="1.0" encoding="UTF-8"?>
<svg width="449px" height="100px" viewBox="21 109 449 260" xmlns="http://www.w3.org/2000/svg" xmlns:xlink="http://www.w3.org/1999/xlink" version="1.1">
 <!-- Generated by Pixelmator Pro 2.1.3 -->
 <path id="Ahoy" d="M406.246 368.992 C405.022 368.972 403.515 368.573 401.721 367.793 399.513 366.833 397.929 366.351 396.969 366.351 395.817 366.351 394.761 366.736 393.801 367.504 391.497 367.312 388.903 365.776 386.023 362.896 383.143 360.016 380.744 358.576 378.824 358.576 378.056 358.576 377.288 358.671 376.52 358.863 375.944 357.519 375.656 356.655 375.656 356.271 376.424 355.503 378.008 354.975 380.408 354.687 382.808 354.399 384.2 353.489 384.584 351.953 384.584 351.377 384.2 350.416 383.432 349.072 382.664 347.728 382.279 346.767 382.279 346.191 382.279 345.615 382.569 345.136 383.145 344.752 385.833 344.752 389.721 345.713 394.809 347.633 399.897 349.553 403.785 350.512 406.473 350.512 408.393 350.512 410.12 350.224 411.656 349.648 412.808 349.84 413.959 349.935 415.111 349.935 419.335 349.935 423.464 347.823 427.496 343.599 428.264 340.143 428.744 335.345 428.936 329.201 429.32 322.289 429.704 317.489 430.088 314.801 429.704 313.649 429.704 312.111 430.088 310.191 430.856 307.503 431.24 305.776 431.24 305.008 431.24 303.664 430.761 302.608 429.801 301.84 427.881 302.608 426.392 304.817 425.336 308.465 424.28 312.113 422.983 314.32 421.447 315.088 418.759 317.008 416.073 318.832 413.385 320.56 410.121 322.48 406.953 323.439 403.881 323.439 402.729 323.439 401.576 323.344 400.424 323.152 395.624 321.232 392.935 318.736 392.359 315.664 392.743 313.552 391.977 311.056 390.057 308.176 388.137 305.296 387.368 302.799 387.752 300.687 385.256 295.503 384.679 289.457 386.023 282.545 385.831 281.585 385.447 281.103 384.871 281.103 384.295 281.103 383.623 281.967 382.855 283.695 379.207 289.071 374.407 297.521 368.455 309.041 365.959 311.537 363.657 312.593 361.545 312.209 361.396 311.96 361.253 311.733 361.117 311.523 360.867 311.758 360.669 311.951 360.393 312.209 358.473 313.361 354.728 313.264 349.16 311.92 348.392 311.536 347.144 310.288 345.416 308.176 344.072 306.64 342.632 306.063 341.096 306.447 339.944 309.135 338.696 311.823 337.352 314.512 335.624 317.775 333.417 319.985 330.729 321.137 328.809 321.137 326.072 321.76 322.52 323.008 318.968 324.256 316.328 324.881 314.6 324.881 312.104 324.881 309.897 324.017 307.977 322.289 302.217 322.481 297.224 319.985 293 314.801 289.736 310.193 286.376 305.584 282.92 300.976 282.152 301.552 280.809 303.231 278.889 306.015 277.866 307.498 276.815 308.582 275.738 309.275 275.732 309.293 275.727 309.31 275.721 309.328 272.457 312.4 269.192 315.473 265.928 318.545 261.896 322.193 258.056 324.015 254.408 324.015 252.68 324.015 250.953 323.631 249.225 322.863 245.385 320.943 243.319 317.057 243.031 311.201 242.743 305.345 241.544 301.457 239.432 299.537 239.432 294.737 238.76 287.535 237.416 277.935 236.456 276.015 235.305 274.672 233.961 273.904 232.617 274.672 231.32 276.735 230.072 280.096 228.824 283.456 227.335 285.616 225.607 286.576 223.687 292.144 221.288 300.784 218.408 312.496 217.256 314.992 214.855 317.201 211.207 319.121 206.983 321.233 204.199 322.961 202.855 324.305 201.319 325.073 198.92 324.496 195.656 322.576 193.544 321.04 192.248 318.016 191.768 313.504 191.288 308.992 190.28 306.065 188.744 304.721 188.936 300.113 188.936 297.616 188.744 297.232 187.4 297.616 186.057 299.295 184.713 302.271 183.369 305.247 181.832 306.736 180.104 306.736 179.528 306.736 178.807 306.495 177.943 306.015 177.079 305.535 176.936 304.815 177.512 303.855 178.088 302.703 178.377 301.84 178.377 301.263 178.569 300.688 178.423 299.585 177.943 297.953 177.463 296.321 177.225 295.312 177.225 294.928 177.225 293.392 178.424 292.528 180.824 292.336 183.224 292.144 185.577 290.416 187.881 287.152 186.345 286.768 184.423 287.345 182.119 288.881 179.815 290.417 177.895 290.991 176.359 290.607 175.975 289.647 175.783 288.591 175.783 287.439 175.783 285.327 176.649 283.12 178.377 280.816 180.297 277.744 181.448 275.535 181.832 274.191 183.944 273.231 186.535 271.024 189.607 267.568 189.799 265.264 189.561 262.096 188.889 258.064 188.217 254.032 187.881 251.249 187.881 249.713 187.881 247.409 188.263 245.392 189.031 243.664 188.071 241.936 187.592 239.921 187.592 237.617 187.592 237.041 187.689 235.311 187.881 232.431 188.073 230.319 188.073 228.592 187.881 227.248 187.497 225.52 186.728 223.887 185.576 222.351 185.384 220.815 185.769 218.56 186.729 215.584 187.689 212.608 188.168 210.352 188.168 208.816 188.168 207.28 187.881 205.84 187.305 204.496 188.649 202.384 189.223 198.929 189.031 194.129 188.839 189.329 189.416 185.776 190.76 183.472 189.608 178.864 190.569 172.432 193.641 164.176 192.873 158.992 194.503 154.096 198.535 149.488 204.295 142.96 207.56 138.736 208.328 136.816 212.36 134.704 216.871 133.935 221.863 134.512 223.207 136.048 225.176 137.057 227.768 137.537 230.36 138.017 232.807 138.448 235.111 138.832 239.911 142.096 242.12 145.743 241.736 149.775 241.352 150.927 241.063 152.56 240.871 154.672 240.871 156.784 240.871 158.993 240.871 161.297 240.679 163.793 240.105 165.712 239.145 167.056 240.297 168.592 240.871 170.128 240.871 171.664 240.871 173.008 240.297 174.976 239.145 177.568 237.993 180.16 237.416 182.128 237.416 183.472 237.416 185.008 237.8 186.449 238.568 187.793 237.608 192.593 236.168 196.048 234.248 198.16 234.632 199.12 234.824 200.081 234.824 201.041 234.824 203.345 233.72 206.416 231.512 210.256 229.304 214.096 228.199 217.168 228.199 219.472 228.199 220.625 228.391 221.873 228.775 223.217 227.431 224.561 225.512 226.768 223.016 229.84 223.976 236.56 221.672 242.511 216.104 247.695 216.296 249.999 215.144 252.544 212.648 255.328 210.152 258.112 208.904 260.367 208.904 262.096 208.904 263.247 209.096 264.401 209.48 265.553 209.288 265.553 208.999 266.896 208.615 269.584 209.383 270.16 210.057 270.447 210.633 270.447 211.593 270.447 212.552 269.152 213.512 266.56 214.472 263.968 215.479 262.241 216.535 261.377 217.591 260.513 218.839 258.544 220.279 255.472 221.719 252.4 223.111 250.289 224.455 249.137 227.527 247.217 231.176 246.256 235.4 246.256 240.008 246.256 243.943 247.217 247.207 249.137 249.703 251.057 251.528 254.417 252.68 259.217 254.216 264.977 255.561 268.719 256.713 270.447 256.329 271.791 256.137 273.039 256.137 274.191 256.137 275.727 256.808 278.705 258.152 283.121 259.304 286.769 259.592 289.84 259.016 292.336 258.632 294.064 259.303 296.368 261.031 299.248 261.415 299.44 262.089 299.44 263.049 299.248 264.777 295.792 266.648 292.337 268.664 288.881 269.385 287.645 270.223 286.642 271.178 285.873 271.58 284.935 272.325 283.923 273.416 282.832 276.104 280.336 277.544 279.088 277.736 279.088 279.848 277.552 280.52 274.768 279.752 270.736 278.984 265.936 279.079 262.671 280.039 260.943 282.343 259.215 283.783 255.665 284.359 250.289 284.935 244.913 286.665 241.264 289.545 239.344 295.497 230.896 300.777 226 305.385 224.656 306.729 222.352 309.128 220.72 312.584 219.76 316.616 219.76 320.648 221.008 324.68 223.504 327.56 226.384 328.039 230.128 326.119 234.736 327.079 234.928 328.809 234.736 331.305 234.16 333.801 233.584 335.623 233.489 336.775 233.873 337.543 233.489 338.312 233.297 339.08 233.297 340.616 233.297 343.015 235.409 346.279 239.633 347.431 240.785 348.105 242.943 348.297 246.111 348.489 249.279 349.256 251.344 350.6 252.305 350.792 253.073 350.889 253.839 350.889 254.607 350.889 255.567 350.697 256.864 350.313 258.496 349.928 260.128 349.736 261.328 349.736 262.096 349.736 263.632 350.313 264.977 351.465 266.129 351.657 266.897 351.752 267.761 351.752 268.721 351.752 270.257 351.272 272.176 350.313 274.48 348.776 277.552 348.008 279.28 348.008 279.664 352.232 282.16 355.879 285.425 358.951 289.457 359.658 289.634 360.572 289.356 361.686 288.638 361.593 288.152 361.545 287.657 361.545 287.152 361.545 283.888 363.08 280.095 366.152 275.775 369.224 271.455 370.952 268.144 371.336 265.84 373.064 264.688 374.361 262.432 375.225 259.072 376.089 255.712 377.288 253.456 378.824 252.305 381.512 251.344 383.288 248.464 384.152 243.664 385.016 238.864 386.792 235.983 389.48 235.023 393.512 233.487 397.16 233.872 400.424 236.176 401.768 237.328 402.393 239.393 402.297 242.369 402.201 245.345 402.824 247.408 404.168 248.56 404.552 249.328 404.744 250.095 404.744 250.863 404.744 251.631 404.408 252.879 403.736 254.607 403.064 256.335 402.729 257.583 402.729 258.351 402.729 259.695 403.208 260.751 404.168 261.519 403.592 263.247 403.305 264.977 403.305 266.705 403.305 268.049 403.976 271.599 405.32 277.359 406.28 281.583 406.28 285.328 405.32 288.592 406.088 289.168 406.473 290.416 406.473 292.336 406.473 292.72 406.473 293.488 406.473 294.64 406.281 295.6 406.184 296.272 406.184 296.656 406.184 299.536 407.529 300.592 410.217 299.824 411.945 298.096 413.24 295.215 414.104 291.183 414.968 287.151 416.072 284.368 417.416 282.832 417.416 279.376 418.759 275.824 421.447 272.176 421.255 270.064 421.88 267.039 423.32 263.103 424.76 259.167 425.288 255.856 424.904 253.168 426.248 248.368 428.745 240.976 432.393 230.992 433.929 228.304 436.328 226.961 439.592 226.961 444.584 226.961 447.849 228.976 449.385 233.008 449.001 235.12 449.096 238.385 449.672 242.801 450.056 247.025 449.961 250.193 449.385 252.305 448.617 259.792 448.712 265.552 449.672 269.584 448.712 270.928 448.232 272.56 448.232 274.48 448.232 273.52 448.425 275.632 448.809 280.816 449.001 283.312 448.616 285.424 447.656 287.152 448.424 290.032 448.616 293.777 448.232 298.385 448.04 301.841 447.751 305.393 447.367 309.041 446.983 312.305 446.983 318.448 447.367 327.472 447.559 335.152 446.888 341.152 445.352 345.472 443.816 349.792 442.088 353.873 440.168 357.713 437.672 362.129 434.12 364.241 429.512 364.049 427.784 366.737 425 368.08 421.16 368.08 420.392 368.08 418.857 367.985 416.553 367.793 414.249 367.601 412.519 367.504 411.367 367.504 409.639 367.696 408.201 368.175 407.049 368.943 406.797 368.979 406.528 368.996 406.246 368.992 Z M407.836 365.566 C408.235 365.574 408.644 365.548 409.064 365.488 410.216 365.488 410.983 365.009 411.367 364.049 411.943 362.897 411.943 361.936 411.367 361.168 410.215 357.136 406.665 354.544 400.713 353.392 399.945 353.776 399.561 354.353 399.561 355.121 399.561 357.617 400.473 360.065 402.297 362.465 403.836 364.49 405.682 365.523 407.836 365.566 Z M421.057 364.467 C422.902 364.452 424.184 364.023 424.904 363.183 425.096 362.031 424.617 360.688 423.465 359.152 422.505 354.928 418.953 353.008 412.809 353.392 412.617 353.776 412.52 354.256 412.52 354.832 412.52 355.984 413.191 357.519 414.535 359.439 416.263 362.319 417.129 363.857 417.129 364.049 418.641 364.337 419.95 364.476 421.057 364.467 Z M394.313 364.164 C395.242 364.153 395.937 363.633 396.393 362.607 396.009 360.495 395.527 358.288 394.951 355.984 394.375 353.68 393.032 352.337 390.92 351.953 390.536 358.481 390.92 362.32 392.072 363.472 392.93 363.94 393.676 364.171 394.313 364.164 Z M432.609 358.012 C432.728 358.01 432.849 358.006 432.969 358 436.041 357.424 437.479 355.888 437.287 353.392 434.023 351.472 430.952 350.512 428.072 350.512 426.344 350.512 424.809 350.896 423.465 351.664 425.883 355.942 428.93 358.058 432.609 358.012 Z M434.119 347.633 C439.303 347.633 442.089 346.48 442.473 344.176 442.281 343.984 441.896 342.735 441.32 340.431 441.128 339.087 440.36 338.513 439.016 338.705 435.752 338.897 433.16 341.391 431.24 346.191 432.008 346.575 432.967 347.057 434.119 347.633 Z M435.818 334.613 C438.227 334.652 440.445 333.424 442.473 330.928 444.585 327.664 443.911 326.031 440.455 326.031 438.343 326.031 436.905 326.8 436.137 328.336 433.833 330.832 433.159 332.849 434.119 334.385 434.695 334.529 435.263 334.604 435.818 334.613 Z M162.535 324.305 C158.887 324.305 154.855 321.329 150.439 315.377 148.135 310.961 144.775 304.048 140.359 294.64 139.207 293.296 138.056 292.625 136.904 292.625 135.944 292.625 134.409 293.248 132.297 294.496 130.185 295.744 128.455 296.369 127.111 296.369 125.767 296.369 124.519 295.792 123.367 294.64 120.679 295.024 117.993 295.504 115.305 296.08 112.041 296.464 109.352 296.08 107.24 294.928 103.016 297.424 99.464 298.287 96.584 297.519 95.432 295.791 93.897 294.928 91.977 294.928 90.825 294.928 89.048 295.312 86.648 296.08 84.248 296.848 82.472 297.135 81.32 296.943 81.128 298.479 80.072 300.352 78.152 302.56 76.232 304.768 75.271 306.64 75.271 308.176 75.271 309.136 75.561 310.096 76.137 311.056 76.137 317.2 74.504 320.945 71.24 322.289 68.744 321.713 67.017 322.095 66.057 323.439 62.793 321.711 60.681 320.847 59.721 320.847 58.761 320.847 57.897 321.137 57.129 321.713 55.017 323.441 53.384 323.151 52.232 320.847 50.504 318.159 50.984 314.799 53.672 310.767 53.48 302.895 54.633 297.328 57.129 294.064 57.513 292.72 57.032 291.664 55.688 290.896 53.575 289.936 52.52 289.265 52.52 288.881 50.024 287.345 48.009 284.369 46.473 279.953 44.361 274.769 42.728 271.409 41.576 269.873 41.192 268.721 41 267.568 41 266.416 41 263.344 42.92 260.032 46.76 256.48 50.6 252.928 52.952 250.145 53.816 248.129 54.68 246.113 56.841 244.96 60.297 244.672 63.753 244.384 65.96 243.089 66.92 240.785 66.728 240.017 66.633 239.248 66.633 238.48 66.633 237.712 67.4 235.793 68.936 232.721 70.088 230.417 69.992 228.4 68.648 226.672 68.264 224.176 70.087 220.049 74.119 214.289 73.159 212.177 72.68 210.16 72.68 208.24 72.68 204.4 74.312 200.753 77.576 197.297 76.808 190.385 78.056 184.336 81.32 179.152 79.592 169.744 81.417 162.545 86.793 157.553 85.641 150.641 86.505 144.976 89.385 140.56 91.113 139.984 93.417 137.968 96.297 134.512 99.177 131.055 101.768 129.328 104.072 129.328 105.224 129.328 106.28 129.52 107.24 129.904 110.696 128.944 113.095 129.616 114.439 131.92 114.631 133.648 114.631 136.336 114.439 139.984 119.047 144.208 121.352 149.488 121.352 155.824 121.352 157.552 121.159 159.28 120.775 161.008 125.191 162.736 127.688 166.672 128.264 172.816 129.032 179.728 130.472 184.144 132.584 186.064 133.544 187.216 134.023 188.657 134.023 190.385 134.023 191.153 133.88 192.401 133.592 194.129 133.304 195.857 133.16 197.105 133.16 197.873 133.16 200.177 134.311 202 136.615 203.344 137.383 204.304 137.768 205.936 137.768 208.24 137.768 210.544 137.865 211.984 138.057 212.56 141.705 214.288 143.817 218.512 144.393 225.232 144.969 231.952 146.791 236.368 149.863 238.48 150.055 238.864 150.055 241.456 149.863 246.256 149.863 249.52 150.919 251.536 153.031 252.305 153.415 253.456 153.848 254.656 154.328 255.904 154.808 257.152 155.816 257.585 157.352 257.201 159.848 257.777 162.487 256.816 165.271 254.32 168.055 251.824 170.311 250.481 172.039 250.289 172.615 251.057 172.615 253.456 172.039 257.488 171.655 260.368 172.808 262.096 175.496 262.672 176.264 264.016 176.456 265.551 176.072 267.279 175.688 269.391 175.591 270.831 175.783 271.599 173.863 271.599 171.513 272.896 168.729 275.488 165.945 278.08 163.689 279.569 161.961 279.953 161.577 281.873 162.056 283.839 163.4 285.855 164.744 287.871 166.088 289.745 167.432 291.472 167.048 294.161 168.104 298.144 170.6 303.424 173.096 308.704 174.344 312.399 174.344 314.512 174.344 318.352 171.752 321.327 166.568 323.439 165.224 324.015 163.879 324.305 162.535 324.305 Z M434.377 322.517 C434.566 322.508 434.768 322.433 434.984 322.289 435.56 321.713 436.04 321.521 436.424 321.713 440.84 319.793 443.239 317.296 443.623 314.224 443.623 312.496 443.048 311.633 441.896 311.633 440.936 311.633 438.92 312.689 435.848 314.801 433.736 318.641 432.969 321.04 433.545 322 433.785 322.36 434.062 322.532 434.377 322.517 Z M314.41 319.767 C314.584 319.767 314.745 319.743 314.889 319.695 315.849 319.503 316.231 318.929 316.039 317.969 314.695 317.009 313.639 314.992 312.871 311.92 312.103 308.848 311.047 306.928 309.703 306.16 308.551 307.312 307.977 309.808 307.977 313.648 307.593 314.992 307.977 316.097 309.129 316.961 310.281 317.825 311.383 318.545 312.439 319.121 313.231 319.553 313.888 319.767 314.41 319.767 Z M406.004 318.976 C406.316 318.976 406.665 318.928 407.049 318.832 409.161 318.64 410.409 317.007 410.793 313.935 410.793 312.975 410.601 311.537 410.217 309.617 409.641 309.041 408.967 308.752 408.199 308.752 407.623 308.752 406.375 310.479 404.455 313.935 403.879 315.279 403.784 316.528 404.168 317.68 404.456 318.544 405.068 318.976 406.004 318.976 Z M164.84 318.545 C167.528 317.585 168.871 316.24 168.871 314.512 168.295 313.552 167.431 313.072 166.279 313.072 164.359 313.264 163.303 313.359 163.111 313.359 161.383 313.359 159.271 314.033 156.775 315.377 157.735 317.105 160.424 318.161 164.84 318.545 Z M56.881 317.199 C57.142 317.208 57.415 317.175 57.703 317.103 59.047 315.183 61.305 314.896 64.473 316.24 67.641 317.584 69.991 317.008 71.527 314.512 72.295 312.976 72.295 311.535 71.527 310.191 67.111 309.807 61.929 311.537 55.977 315.377 55.209 315.953 55.111 316.432 55.688 316.816 56.048 317.056 56.446 317.184 56.881 317.199 Z M325.705 316.494 C326.881 316.511 328.172 316.331 329.576 315.953 331.88 314.033 332.936 312.593 332.744 311.633 330.632 311.825 328.184 311.007 325.4 309.183 322.616 307.359 320.169 306.544 318.057 306.736 317.481 307.504 317.481 308.465 318.057 309.617 318.825 310.961 319.112 311.92 318.92 312.496 320.438 315.118 322.699 316.451 325.705 316.494 Z M201.416 315.953 C201.8 315.761 202.856 314.321 204.584 311.633 204.584 311.249 204.871 310.385 205.447 309.041 206.023 307.697 206.313 306.736 206.313 306.16 206.313 305.392 205.736 304.913 204.584 304.721 204.392 304.913 203.049 306.353 200.553 309.041 198.825 310.577 198.056 312.304 198.248 314.224 199.016 315.184 200.072 315.761 201.416 315.953 Z M396.969 315.664 C401.001 311.632 403.305 307.408 403.881 302.992 403.497 302.224 402.92 301.84 402.152 301.84 400.808 301.84 398.696 303.28 395.816 306.16 395.624 309.808 396.009 312.976 396.969 315.664 Z M261.658 315.279 C262.339 315.296 263.042 315.039 263.768 314.512 264.824 313.744 265.352 313.072 265.352 312.496 265.352 311.728 264.488 311.441 262.76 311.633 261.032 311.825 260.073 312.304 259.881 313.072 259.881 314.032 260.168 314.704 260.744 315.088 261.044 315.208 261.349 315.272 261.658 315.279 Z M251.816 315.088 C253.544 315.088 254.408 314.032 254.408 311.92 254.408 308.848 254.503 307.215 254.695 307.023 255.079 302.991 255.176 300.879 254.984 300.687 252.68 301.839 250.953 303.569 249.801 305.873 248.649 309.713 249.32 312.784 251.816 315.088 Z M299.912 313.935 C301.256 313.935 302.025 312.305 302.217 309.041 302.409 304.817 302.791 302.128 303.367 300.976 303.175 299.248 302.504 298.385 301.352 298.385 298.472 298.385 296.552 300.304 295.592 304.144 294.248 305.872 294.248 308.079 295.592 310.767 295.976 310.959 296.647 311.536 297.607 312.496 298.567 313.456 299.336 313.935 299.912 313.935 Z M417.832 311.885 C417.909 311.888 417.986 311.888 418.064 311.885 418.688 311.861 419.336 311.633 420.008 311.201 421.352 310.337 422.023 309.425 422.023 308.465 422.023 307.505 421.016 306.928 419 306.736 416.984 306.544 415.687 306.16 415.111 305.584 414.343 305.968 413.961 306.352 413.961 306.736 413.961 307.12 414.343 307.84 415.111 308.896 415.879 309.952 416.264 310.768 416.264 311.344 416.768 311.68 417.291 311.861 417.832 311.885 Z M211.752 311.65 C213.046 311.661 214.593 310.408 216.393 307.888 216.777 305.392 216.487 304.144 215.527 304.144 214.759 304.144 213.849 305.103 212.793 307.023 211.737 308.943 211.304 310.481 211.496 311.633 211.58 311.645 211.666 311.649 211.752 311.65 Z M435.65 308.537 C435.878 308.537 436.136 308.513 436.424 308.465 436.808 308.273 438.535 307.791 441.607 307.023 443.527 306.447 444.391 305.104 444.199 302.992 444.007 301.264 443.336 300.4 442.184 300.4 441.992 300.4 439.88 301.648 435.848 304.144 435.464 304.72 435.079 305.392 434.695 306.16 434.311 306.928 434.216 307.505 434.408 307.888 434.552 308.32 434.966 308.537 435.65 308.537 Z M354.92 307.465 C356.15 307.465 357.493 307.222 358.951 306.736 360.023 306.736 361.615 306.648 363.684 306.482 364.368 305.628 365.094 304.659 365.863 303.568 365.671 302.992 365 302.464 363.848 301.984 363.466 301.825 363.16 301.65 362.926 301.459 362.807 301.493 362.684 301.525 362.553 301.553 360.729 301.937 358.953 302.321 357.225 302.705 355.689 302.321 354.056 302.032 352.328 301.84 350.408 301.648 348.873 301.937 347.721 302.705 349.377 305.879 351.776 307.465 354.92 307.465 Z M157 307.328 C157.211 307.329 157.425 307.324 157.641 307.312 159.369 307.312 161.191 307.215 163.111 307.023 165.031 306.831 166.184 306.257 166.568 305.297 165.416 302.225 162.151 300.113 156.775 298.961 155.239 299.537 153.704 300.016 152.168 300.4 150.632 300.784 149.671 301.648 149.287 302.992 151.267 305.872 153.839 307.317 157 307.328 Z M60.58 306.83 C61.855 306.815 63.391 306.687 65.191 306.447 69.415 303.183 71.527 301.553 71.527 301.553 73.831 299.633 74.792 297.328 74.408 294.64 74.216 292.72 73.64 291.76 72.68 291.76 71.912 291.76 70.761 292.144 69.225 292.912 67.689 293.68 66.633 294.064 66.057 294.064 60.489 298.288 57.992 302.512 58.568 306.736 59.144 306.808 59.815 306.839 60.58 306.83 Z M269.096 306.447 C269.864 306.447 271.112 306.16 272.84 305.584 272.983 305.536 273.116 305.496 273.25 305.455 273.446 304.845 273.693 304.217 273.992 303.568 274.234 302.599 274.227 301.919 273.973 301.523 273.614 301.635 273.237 301.74 272.84 301.84 269.768 302.608 267.656 303.664 266.504 305.008 267.08 305.968 267.944 306.447 269.096 306.447 Z M331.881 306.16 C332.649 306.16 335.048 304.817 339.08 302.129 340.04 300.401 340.424 299.153 340.232 298.385 337.352 298.193 332.936 299.056 326.984 300.976 326.6 301.36 326.408 301.745 326.408 302.129 326.408 304.817 328.233 306.16 331.881 306.16 Z M195.656 303.568 C198.344 302.224 200.072 301.263 200.84 300.687 202.568 299.535 203.816 298.097 204.584 296.369 204.968 295.409 205.352 294.448 205.736 293.488 206.12 292.336 205.736 291.567 204.584 291.183 202.472 292.527 199.688 294.929 196.232 298.385 195.272 299.537 195.08 301.264 195.656 303.568 Z M316.139 301.625 C317.201 301.625 318.128 301.408 318.92 300.976 323.72 296.752 326.024 293.392 325.832 290.896 327.752 288.784 328.713 285.711 328.713 281.68 328.521 276.112 328.521 272.656 328.713 271.312 326.985 268.432 326.696 264.111 327.848 258.351 326.504 257.391 325.64 256.143 325.256 254.607 325.64 251.535 325.353 247.408 324.393 242.224 324.201 241.84 324.104 241.456 324.104 241.072 324.104 240.496 324.296 239.776 324.68 238.912 325.064 238.048 325.256 237.52 325.256 237.328 325.256 236.56 324.679 236.176 323.527 236.176 322.951 236.944 319.881 239.44 314.313 243.664 310.472 246.352 308.168 249.52 307.4 253.168 307.976 255.664 307.305 258.352 305.385 261.232 303.465 264.112 302.504 266.319 302.504 267.855 302.504 269.007 302.791 270.352 303.367 271.888 302.407 273.232 301.928 274.673 301.928 276.209 301.928 277.553 302.648 280.001 304.088 283.553 305.528 287.105 305.961 290.032 305.385 292.336 305.769 292.72 307.207 295.216 309.703 299.824 312.223 301.024 314.369 301.625 316.139 301.625 Z M392.072 301.553 C394.76 301.169 397.831 299.057 401.287 295.217 401.863 294.065 402.152 293.104 402.152 292.336 402.152 291.376 401.673 290.896 400.713 290.896 398.601 290.896 395.815 292.432 392.359 295.504 390.631 298 390.536 300.017 392.072 301.553 Z M420.602 300.814 C421.022 300.826 421.4 300.783 421.736 300.687 424.04 300.879 425.576 299.249 426.344 295.793 420.776 295.217 417.224 296.368 415.688 299.248 417.704 300.256 419.342 300.778 420.602 300.814 Z M364.596 299.084 C365.681 298.616 367.121 298.014 369.031 297.232 371.911 296.08 373.833 294.353 374.793 292.049 375.177 291.281 374.503 290.607 372.775 290.031 371.431 289.647 369.847 289.888 368.023 290.752 366.53 291.459 365.463 291.871 364.807 292 364.777 292.205 364.749 292.41 364.713 292.625 362.601 293.969 361.545 295.312 361.545 296.656 361.545 297.616 362.504 298.193 364.424 298.385 364.506 298.632 364.562 298.864 364.596 299.084 Z M289.832 298.672 C294.44 296.176 297.513 292.431 299.049 287.439 299.433 284.943 298.951 283.695 297.607 283.695 294.535 283.695 291.944 285.807 289.832 290.031 288.104 292.719 288.104 295.6 289.832 298.672 Z M434.695 298.385 C437.383 297.425 439.113 296.656 439.881 296.08 441.801 295.12 442.952 293.777 443.336 292.049 444.296 291.089 444.296 290.225 443.336 289.457 439.496 289.841 436.52 291.953 434.408 295.793 434.216 296.369 434.311 297.233 434.695 298.385 Z M212.648 297.808 C217.256 295.696 219.753 293.103 220.137 290.031 217.257 288.879 214.568 289.745 212.072 292.625 211.88 293.969 212.072 295.696 212.648 297.808 Z M246.633 297.808 C251.241 296.272 253.735 292.815 254.119 287.439 253.351 286.671 252.777 286.289 252.393 286.289 247.593 289.361 245.673 293.2 246.633 297.808 Z M351.598 297.109 C352.217 297.12 352.652 296.873 352.904 296.369 352.904 291.377 352.04 288.304 350.313 287.152 348.776 290.224 348.105 293.105 348.297 295.793 349.701 296.657 350.801 297.096 351.598 297.109 Z M275.639 295.763 C276.002 295.677 276.36 295.59 276.729 295.504 278.361 295.12 279.463 294.256 280.039 292.912 280.615 291.376 279.943 290.128 278.023 289.168 277.69 289.209 277.319 289.246 276.922 289.279 276.583 289.701 276.184 290.143 275.721 290.607 273.993 292.335 273.129 293.391 273.129 293.775 273.129 294.531 273.967 295.194 275.639 295.763 Z M148.713 295.217 C149.289 295.217 150.824 294.927 153.32 294.351 155.24 293.967 156.632 293.775 157.496 293.775 158.36 293.775 159.224 293.632 160.088 293.344 160.952 293.056 161.288 292.432 161.096 291.472 158.216 287.632 155.24 285.905 152.168 286.289 151.784 286.481 150.151 287.152 147.271 288.305 145.351 289.073 144.296 290.128 144.104 291.472 144.872 293.969 146.409 295.217 148.713 295.217 Z M332.916 293.967 C333.479 293.977 334.191 293.818 335.049 293.488 339.657 291.952 342.248 289.84 342.824 287.152 343.208 286.576 343.208 285.615 342.824 284.271 337.64 285.615 333.993 287.727 331.881 290.607 331.497 291.183 331.305 291.665 331.305 292.049 331.305 293.309 331.841 293.947 332.916 293.967 Z M97.809 291.265 C99.993 291.307 102.175 290.32 104.359 288.305 106.855 286 108.104 284.081 108.104 282.545 108.104 281.777 107.624 281.392 106.664 281.392 104.744 281.392 103.016 281.969 101.48 283.121 101.48 283.313 100.52 284.559 98.6 286.863 97.064 288.399 96.487 289.839 96.871 291.183 97.183 291.231 97.497 291.259 97.809 291.265 Z M86.217 291.183 C88.329 289.455 89.672 288.304 90.248 287.728 91.784 286.192 92.553 284.657 92.553 283.121 92.937 282.737 93.129 282.255 93.129 281.68 93.129 280.911 92.937 280.337 92.553 279.953 87.753 279.761 84.008 282.544 81.32 288.305 81.704 289.841 83.337 290.799 86.217 291.183 Z M390.344 290.607 C397.064 287.727 400.808 283.503 401.576 277.935 400.808 277.551 400.039 277.359 399.271 277.359 396.775 277.359 393.992 279.281 390.92 283.121 389.576 287.153 389.384 289.647 390.344 290.607 Z M113.141 290.344 C115.267 290.4 117.14 289.528 118.76 287.728 120.488 285.808 122.12 283.889 123.656 281.969 L123.656 279.953 C121.928 279.761 118.953 281.199 114.729 284.271 114.729 284.847 114.296 285.665 113.432 286.721 112.568 287.777 112.137 288.592 112.137 289.168 112.137 289.552 112.329 289.936 112.713 290.32 112.857 290.332 112.999 290.34 113.141 290.344 Z M418.855 290.32 C420.775 290.32 422.792 290.223 424.904 290.031 427.016 289.839 428.649 289.167 429.801 288.015 431.145 286.671 431.527 285.615 430.951 284.847 430.375 284.079 429.319 283.887 427.783 284.271 424.711 285.231 422.791 285.905 422.023 286.289 420.103 287.441 419.047 288.784 418.855 290.32 Z M63.465 290.031 C66.345 288.303 69.272 286.529 72.248 284.705 75.224 282.881 77.192 280.528 78.152 277.648 78.728 276.496 78.728 274.961 78.152 273.041 69.704 275.345 64.425 278.705 62.313 283.121 61.736 287.153 62.121 289.455 63.465 290.031 Z M129.037 288.377 C129.241 288.377 129.463 288.352 129.703 288.305 131.431 286.576 132.297 285.713 132.297 285.713 131.721 284.945 130.952 284.655 129.992 284.847 129.032 284.847 128.312 285.232 127.832 286 127.352 286.768 127.303 287.344 127.688 287.728 127.976 288.16 128.425 288.377 129.037 288.377 Z M196.809 288.305 C200.841 287.344 203.527 284.656 204.871 280.24 205.255 279.472 205.352 278.608 205.16 277.648 204.968 276.688 204.489 276.304 203.721 276.496 198.729 279.952 196.232 282.928 196.232 285.424 196.232 286.384 196.425 287.344 196.809 288.305 Z M370.387 285.068 C374.248 285.078 377.348 283.755 379.688 281.103 379.688 279.183 378.729 278.127 376.809 277.935 375.273 277.551 373.64 277.744 371.912 278.512 369.608 279.664 368.168 281.775 367.592 284.847 368.564 284.991 369.496 285.066 370.387 285.068 Z M214.088 284.56 C214.472 284.56 215.192 284.368 216.248 283.984 217.304 283.6 218.024 283.503 218.408 283.695 220.52 283.119 222.727 280.72 225.031 276.496 225.031 276.304 224.072 276.017 222.152 275.633 218.12 275.633 215.337 277.745 213.801 281.969 213.033 283.697 213.128 284.56 214.088 284.56 Z M54.479 284.32 C54.684 284.325 54.895 284.307 55.111 284.271 55.303 283.503 55.688 282.352 56.264 280.816 55.88 280.24 54.824 279.761 53.096 279.377 51.56 279.185 50.793 279.567 50.793 280.527 50.793 281.295 51.224 282.161 52.088 283.121 52.79 283.901 53.586 284.301 54.479 284.32 Z M437.863 284.271 C439.399 283.887 441.416 282.928 443.912 281.392 444.296 279.856 444.488 278.703 444.488 277.935 444.488 276.783 444.104 276.209 443.336 276.209 442.184 276.209 440.792 277.311 439.16 279.519 437.528 281.727 437.095 283.311 437.863 284.271 Z M139.783 283.984 C142.087 283.216 144.488 282.448 146.984 281.68 149.48 280.911 151.113 279.568 151.881 277.648 149.961 275.344 147.849 274.48 145.545 275.056 143.049 276.208 139.879 278.32 136.039 281.392 136.807 281.968 138.055 282.832 139.783 283.984 Z M284.648 283.695 C287.528 281.967 290.504 280.001 293.576 277.793 296.648 275.585 298.281 272.848 298.473 269.584 297.897 269.008 297.223 268.721 296.455 268.721 295.687 268.721 294.441 269.105 292.713 269.873 290.985 270.641 289.737 271.12 288.969 271.312 286.857 273.232 285.416 277.359 284.648 283.695 Z M244.039 283.121 C247.687 280.433 249.801 277.647 250.377 274.767 250.761 271.695 250.761 269.391 250.377 267.855 248.649 267.279 246.345 269.009 243.465 273.041 242.697 277.841 242.887 281.201 244.039 283.121 Z M423.176 280.527 C429.704 279.951 433.735 277.744 435.271 273.904 434.695 272.752 433.447 272.368 431.527 272.752 429.991 273.328 428.456 273.807 426.92 274.191 423.272 275.151 422.024 277.263 423.176 280.527 Z M334.473 279.088 C338.313 278.704 342.055 276.112 345.703 271.312 345.895 269.392 345.513 268.431 344.553 268.431 342.057 268.431 339.56 269.392 337.064 271.312 333.992 273.808 333.129 276.4 334.473 279.088 Z M98.889 276.785 C100.425 276.209 102.247 275.92 104.359 275.92 105.511 275.92 107.095 276.017 109.111 276.209 111.127 276.401 112.616 276.496 113.576 276.496 116.84 276.496 119.529 275.727 121.641 274.191 121.833 273.807 121.543 273.233 120.775 272.465 117.895 273.041 114.825 271.793 111.561 268.721 108.297 265.649 105.8 264.111 104.072 264.111 102.536 264.111 101.001 264.593 99.465 265.553 99.273 265.553 97.64 264.689 94.568 262.961 92.456 261.809 90.537 261.424 88.809 261.808 86.313 266.032 85.064 268.432 85.064 269.008 85.064 269.968 85.257 270.831 85.641 271.599 86.025 273.903 87.847 275.152 91.111 275.344 95.335 275.536 97.929 276.017 98.889 276.785 Z M391.67 275.689 C391.794 275.687 391.928 275.669 392.072 275.633 397.392 272.213 400.172 268.416 400.416 264.244 400.368 264.607 400.084 264.181 399.561 262.961 395.913 263.921 393.032 266.415 390.92 270.447 390.92 270.639 390.825 271.313 390.633 272.465 390.441 273.617 390.441 274.383 390.633 274.767 390.789 275.391 391.134 275.699 391.67 275.689 Z M380.252 273.265 C382 273.277 383.252 272.337 384.008 270.447 384.776 269.295 385.16 268.431 385.16 267.855 385.16 266.511 384.199 265.84 382.279 265.84 379.015 265.84 376.808 266.703 375.656 268.431 375.08 271.311 375.56 272.657 377.096 272.465 378.284 272.993 379.336 273.259 380.252 273.265 Z M52.646 273.205 C54.05 273.191 54.968 272.752 55.4 271.888 54.632 268.048 52.52 264.688 49.064 261.808 47.528 262.576 46.665 263.632 46.473 264.976 46.473 269.008 47.144 271.505 48.488 272.465 50.168 272.969 51.554 273.215 52.646 273.205 Z M132.854 272.767 C137.27 272.709 141.117 270.497 144.393 266.129 143.049 264.401 141.416 263.537 139.496 263.537 136.04 263.537 132.585 265.457 129.129 269.297 127.401 270.449 127.591 271.505 129.703 272.465 130.783 272.681 131.834 272.781 132.854 272.767 Z M162.535 272.465 C163.495 272.465 164.697 271.647 166.137 270.015 167.577 268.383 168.487 267.471 168.871 267.279 169.447 266.895 169.736 266.416 169.736 265.84 169.736 265.072 168.583 264.016 166.279 262.672 163.591 264.592 161.864 267.664 161.096 271.888 161.48 272.272 161.959 272.465 162.535 272.465 Z M196.232 272.465 C201.608 268.241 204.105 264.017 203.721 259.793 203.145 259.025 202.568 258.64 201.992 258.64 200.456 258.64 198.729 260.368 196.809 263.824 195.465 268.624 195.272 271.505 196.232 272.465 Z M442.184 271.312 C443.912 271.312 445.16 270.256 445.928 268.144 446.312 267.376 446.504 266.608 446.504 265.84 446.504 264.88 445.927 264.592 444.775 264.976 444.583 265.168 444.009 265.791 443.049 266.847 442.089 267.903 441.607 268.816 441.607 269.584 441.607 270.16 441.8 270.736 442.184 271.312 Z M65.191 270.736 C71.335 270.16 75.849 268.24 78.729 264.976 79.113 264.4 79.305 263.824 79.305 263.248 79.113 262.48 78.631 262.193 77.863 262.385 77.863 262.385 75.08 263.344 69.512 265.263 66.248 266.416 64.807 268.24 65.191 270.736 Z M220.137 270.16 C220.905 269.776 223.209 269.489 227.049 269.297 229.929 268.913 231.559 268.049 231.943 266.705 231.367 265.937 228.681 265.071 223.881 264.111 222.345 264.879 221.097 265.696 220.137 266.56 219.177 267.424 218.695 268.432 218.695 269.584 219.079 269.968 219.561 270.16 220.137 270.16 Z M426.92 268.431 C429.608 268.047 433.447 266.704 438.439 264.4 439.015 262.672 439.113 261.711 438.729 261.519 435.081 261.903 431.336 263.151 427.496 265.263 425.768 266.608 425.576 267.663 426.92 268.431 Z M153.031 268.289 C153.319 268.289 153.608 268.24 153.896 268.144 154.088 267.952 154.184 267.568 154.184 266.992 154.184 266.416 153.945 265.888 153.465 265.408 152.985 264.928 152.457 264.784 151.881 264.976 151.497 265.168 151.305 265.745 151.305 266.705 151.113 267.281 151.4 267.76 152.168 268.144 152.456 268.24 152.743 268.289 153.031 268.289 Z M241.736 266.416 C245 262.768 246.633 259.792 246.633 257.488 246.633 252.304 244.711 250.479 240.871 252.015 240.871 255.279 241.063 259.985 241.447 266.129 241.447 266.129 241.544 266.224 241.736 266.416 Z M58.893 266.201 C59.253 266.201 59.721 265.984 60.297 265.553 60.297 265.361 60.392 262.48 60.584 256.912 60.776 253.072 61.545 250.288 62.889 248.56 59.049 248.368 56.552 249.616 55.4 252.305 54.248 253.456 53.672 254.897 53.672 256.625 53.672 258.929 55.304 262.097 58.568 266.129 58.664 266.177 58.773 266.201 58.893 266.201 Z M334.473 266.129 C334.857 265.745 337.161 264.4 341.385 262.096 344.457 260.56 345.992 258.545 345.992 256.049 345.8 255.665 345.513 255.28 345.129 254.896 342.441 255.664 338.792 257.392 334.184 260.08 333.224 262.96 333.321 264.977 334.473 266.129 Z M285.225 265.84 C289.065 264.88 294.247 262.576 300.775 258.928 300.967 258.352 301.064 257.872 301.064 257.488 301.064 256.528 300.296 256.049 298.76 256.049 297.416 256.049 296.073 256.049 294.729 256.049 288.585 258.353 285.417 261.616 285.225 265.84 Z M119.912 264.976 C126.44 262.288 129.992 259.408 130.568 256.336 130.184 255.184 128.265 254.225 124.809 253.457 122.889 254.609 120.823 255.904 118.615 257.344 116.407 258.784 115.015 260.56 114.439 262.672 115.015 263.44 116.84 264.208 119.912 264.976 Z M380.84 261.232 C383.528 260.464 385.063 258.929 385.447 256.625 385.063 256.625 384.392 256.433 383.432 256.049 380.936 257.969 380.072 259.696 380.84 261.232 Z M390.955 261.135 C391.208 261.127 391.483 261.063 391.783 260.943 396.007 259.023 398.888 255.473 400.424 250.289 399.848 249.329 398.12 249.04 395.24 249.424 391.016 253.072 388.999 255.855 389.191 257.775 388.999 258.735 389.143 259.601 389.623 260.369 389.953 260.897 390.398 261.151 390.955 261.135 Z M235.111 259.793 C235.495 254.225 234.536 251.439 232.232 251.439 231.656 251.439 230.985 251.536 230.217 251.728 230.217 251.92 228.969 253.361 226.473 256.049 228.201 257.201 231.079 258.449 235.111 259.793 Z M66.92 259.217 C69.416 259.217 71.144 257.871 72.104 255.183 73.448 251.343 74.408 249.136 74.984 248.56 75.56 247.792 75.848 247.121 75.848 246.545 75.848 245.585 75.271 245.103 74.119 245.103 72.007 245.103 70.377 245.872 69.225 247.408 67.113 251.056 66.057 253.84 66.057 255.76 66.057 256.912 66.344 258.065 66.92 259.217 Z M146.984 258.928 C147.56 258.736 147.753 258.256 147.561 257.488 147.561 256.144 147.079 255.472 146.119 255.472 144.199 256.432 143.24 257.104 143.24 257.488 143.24 257.872 143.528 258.256 144.104 258.64 144.296 258.448 144.777 258.448 145.545 258.64 146.313 258.832 146.792 258.928 146.984 258.928 Z M105.225 258.64 C110.025 256.144 112.521 253.361 112.713 250.289 112.137 247.793 109.736 247.024 105.512 247.984 103.208 249.712 100.519 252.593 97.447 256.625 99.175 257.969 101.769 258.64 105.225 258.64 Z M431.453 258.283 C435.343 258.293 438.535 256.972 441.031 254.32 441.991 252.784 442.473 251.728 442.473 251.152 442.473 250.384 441.127 250.287 438.439 250.863 435.367 251.631 433.545 251.92 432.969 251.728 430.857 251.92 429.416 254.032 428.648 258.064 429.62 258.208 430.555 258.281 431.453 258.283 Z M80.547 256.463 C80.775 256.475 81.032 256.432 81.32 256.336 84.968 254.992 87.56 253.841 89.096 252.881 91.784 250.961 93.319 248.657 93.703 245.969 93.319 245.777 91.017 245.392 86.793 244.816 83.913 245.584 81.417 248.944 79.305 254.896 79.449 255.904 79.863 256.427 80.547 256.463 Z M195.367 254.32 C196.327 252.976 198.249 251.056 201.129 248.56 200.937 247.984 201.032 246.449 201.416 243.953 201.608 242.225 201.032 241.264 199.688 241.072 196.231 246.064 194.504 249.424 194.504 251.152 194.504 252.304 194.791 253.36 195.367 254.32 Z M331.592 253.168 C336.008 252.976 339.56 251.056 342.248 247.408 343.016 244.144 342.44 242.704 340.52 243.088 338.408 244.432 336.201 245.823 333.896 247.263 331.592 248.703 330.824 250.672 331.592 253.168 Z M137.553 251.871 C137.882 251.865 138.243 251.818 138.633 251.728 141.321 250.768 143.144 247.6 144.104 242.224 143.144 240.496 142.28 239.633 141.512 239.633 140.552 239.633 139.401 240.927 138.057 243.519 136.713 246.111 135.657 247.695 134.889 248.271 134.889 250.701 135.776 251.901 137.553 251.871 Z M296.455 249.424 C299.911 248.848 301.736 248.56 301.928 248.56 304.04 247.984 305.48 246.831 306.248 245.103 305.864 243.567 304.713 242.801 302.793 242.801 299.337 242.993 297.607 243.088 297.607 243.088 293.767 244.432 291.945 246.351 292.137 248.847 293.289 248.655 294.727 248.848 296.455 249.424 Z M435.232 247.574 C436.195 247.583 437.361 247.336 438.729 246.832 440.265 246.256 441.751 245.536 443.191 244.672 444.631 243.808 445.352 242.608 445.352 241.072 443.048 240.496 440.648 240.496 438.152 241.072 435.272 241.84 433.256 243.28 432.104 245.392 432.584 246.832 433.627 247.559 435.232 247.574 Z M121.879 246.888 C123.261 246.874 124.239 246.184 124.809 244.816 125.193 241.36 123.944 237.136 121.064 232.144 118.184 227.152 116.744 223.216 116.744 220.336 116.744 219.376 116.839 218.417 117.031 217.457 112.423 212.849 110.793 206.129 112.137 197.297 110.409 195.761 108.968 193.36 107.816 190.096 106.28 185.104 105.512 182.512 105.512 182.32 104.552 184.816 102.824 188.368 100.328 192.976 101.672 196.432 101.959 199.024 101.191 200.752 99.079 203.44 98.121 207.184 98.313 211.984 98.313 218.128 98.12 221.873 97.736 223.217 96.2 223.985 95.239 225.328 94.855 227.248 94.663 228.4 94.663 230.127 94.855 232.431 95.239 235.311 95.337 237.231 95.145 238.191 97.257 240.303 101.24 241.456 107.096 241.648 112.952 241.84 116.745 243.281 118.473 245.969 119.799 246.593 120.933 246.898 121.879 246.888 Z M389.48 246.545 C392.168 245.777 395.239 243.857 398.695 240.785 398.311 239.441 397.255 238.672 395.527 238.48 393.799 238.096 392.456 238.481 391.496 239.633 389.192 241.361 388.52 243.665 389.48 246.545 Z M131.432 241.648 C132.776 239.152 134.888 235.408 137.768 230.416 138.728 225.808 137.961 222.832 135.465 221.488 131.625 225.136 129.416 228.399 128.84 231.279 128.84 231.279 128.745 233.296 128.553 237.328 128.553 240.016 129.512 241.456 131.432 241.648 Z M331.402 241.474 C332.777 241.494 334.088 240.881 335.336 239.633 335.912 239.249 336.104 238.767 335.912 238.191 335.528 237.615 335.144 237.425 334.76 237.617 332.84 237.809 331.399 239.055 330.439 241.359 330.763 241.431 331.085 241.47 331.402 241.474 Z M210.344 240.496 C212.84 240.496 215.336 239.153 217.832 236.465 218.408 235.505 218.695 234.736 218.695 234.16 218.695 233.392 217.88 233.392 216.248 234.16 214.616 234.928 213.127 235.6 211.783 236.176 209.863 238.096 209.384 239.536 210.344 240.496 Z M78.871 239.775 C79.399 239.775 79.927 239.729 80.455 239.633 84.871 239.057 87.464 237.711 88.232 235.599 89 232.527 88.329 231.376 86.217 232.144 85.641 232.72 83.432 233.487 79.592 234.447 76.712 235.215 74.887 236.56 74.119 238.48 75.703 239.344 77.287 239.775 78.871 239.775 Z M192.775 238.191 C192.775 238.191 194.695 236.656 198.535 233.584 198.535 233.584 199.017 232.336 199.977 229.84 200.553 228.304 200.456 227.153 199.688 226.385 194.119 230.609 191.815 234.543 192.775 238.191 Z M308.057 237.326 C308.232 237.328 308.407 237.328 308.584 237.326 309.87 237.315 311.204 237.221 312.584 237.041 314.312 235.889 315.176 234.928 315.176 234.16 315.176 233.584 314.504 232.912 313.16 232.144 311.816 231.376 308.743 231.279 303.943 231.855 300.871 233.199 299.815 234.64 300.775 236.176 303.003 236.918 305.43 237.301 308.057 237.326 Z M434.984 236.465 C434.984 236.465 436.904 236.272 440.744 235.888 442.856 235.696 444.104 234.928 444.488 233.584 444.104 232.816 443.433 232.336 442.473 232.144 441.897 232.144 441.033 232.239 439.881 232.431 438.537 232.431 437.671 232.431 437.287 232.431 435.367 234.351 434.408 235.312 434.408 235.312 434.6 235.696 434.792 236.081 434.984 236.465 Z M320.432 229.84 C320.768 229.84 321.128 229.745 321.512 229.553 322.28 229.361 322.472 228.784 322.088 227.824 321.32 227.248 320.264 226.384 318.92 225.232 315.272 224.656 313.352 224.943 313.16 226.096 313.736 226.288 315.848 227.441 319.496 229.553 319.784 229.745 320.096 229.84 320.432 229.84 Z M74.984 229.263 C82.088 227.919 87.271 224.944 90.535 220.336 91.495 216.688 91.977 215.055 91.977 215.439 91.977 214.287 91.305 213.808 89.961 214 89.577 214.192 86.889 215.44 81.896 217.744 78.632 219.088 76.328 220.913 74.984 223.217 73.832 226.097 73.832 228.112 74.984 229.263 Z M214.664 226.385 C216.968 226.385 219.944 224.56 223.592 220.912 223.4 219.952 222.728 219.472 221.576 219.472 220.232 220.432 218.792 221.44 217.256 222.496 215.72 223.552 214.856 224.849 214.664 226.385 Z M207.176 225.808 C207.176 225.808 208.04 224.56 209.768 222.064 210.728 220.528 211.207 219.183 211.207 218.031 211.207 217.071 210.92 216.112 210.344 215.152 211.88 212.08 213.32 207.664 214.664 201.904 216.2 194.992 217.448 190.384 218.408 188.08 217.448 186.16 217.256 182.8 217.832 178 221.48 173.392 222.92 167.44 222.152 160.144 220.808 157.456 219.368 156.111 217.832 156.111 216.872 156.111 216.103 156.688 215.527 157.84 213.991 163.792 211.592 172.624 208.328 184.336 208.904 186.064 209.191 187.888 209.191 189.808 209.191 191.536 208.617 194.704 207.465 199.312 206.505 203.152 206.216 206.32 206.6 208.816 205.832 210.352 205.447 212.272 205.447 214.576 205.447 216.112 205.736 218.224 206.313 220.912 206.889 223.6 207.176 225.232 207.176 225.808 Z M123.656 225.232 C125.576 222.736 128.265 218.705 131.721 213.137 133.065 209.105 132.201 206.416 129.129 205.072 124.521 209.488 121.832 215.152 121.064 222.064 121.448 224.176 122.312 225.232 123.656 225.232 Z M191.912 222.928 C194.984 222.352 197.768 219.568 200.264 214.576 200.648 212.464 200.36 211.408 199.4 211.408 197.096 211.408 194.695 213.328 192.199 217.168 191.623 220.24 191.528 222.16 191.912 222.928 Z M218.119 214 C221.959 212.848 224.552 211.312 225.896 209.392 228.008 207.664 229.064 206.416 229.064 205.648 229.064 205.072 228.583 204.785 227.623 204.785 223.015 204.785 220.329 206.128 219.561 208.816 217.449 211.12 216.967 212.848 218.119 214 Z M79.881 211.984 C83.529 210.064 87.271 207.952 91.111 205.648 94.951 203.344 96.489 199.984 95.721 195.568 90.153 196.144 84.873 198.833 79.881 203.633 78.537 208.433 78.537 211.216 79.881 211.984 Z M119.242 207.969 C119.521 207.982 119.839 207.88 120.199 207.664 121.927 205.168 123.703 202.576 125.527 199.888 127.351 197.201 128.169 194.417 127.977 191.537 127.209 187.889 125.768 186.256 123.656 186.64 123.464 187.6 122.119 190.289 119.623 194.705 117.895 197.777 117.32 200.656 117.896 203.344 117.704 204.688 117.8 205.887 118.184 206.943 118.424 207.603 118.777 207.946 119.242 207.969 Z M193.352 206.512 C196.424 205.935 199.304 203.152 201.992 198.16 202.952 196.24 203.144 194.897 202.568 194.129 200.264 195.857 198.009 197.679 195.801 199.599 193.593 201.519 192.776 203.823 193.352 206.512 Z M223.881 197.297 C225.609 197.297 228.008 195.664 231.08 192.4 232.616 187.984 233.288 185.775 233.096 185.775 229.832 188.271 227.912 189.809 227.336 190.385 225.032 192.689 223.881 194.993 223.881 197.297 Z M83.912 191.824 C91.4 189.52 96.393 185.681 98.889 180.305 99.465 178.961 99.465 177.52 98.889 175.984 93.513 177.52 88.52 180.975 83.912 186.351 83.912 186.351 83.72 187.312 83.336 189.232 82.952 190.384 83.144 191.248 83.912 191.824 Z M194.504 190.096 C197.192 189.711 199.496 188.32 201.416 185.92 203.336 183.52 204.297 181.648 204.297 180.305 204.297 179.152 203.336 178.863 201.416 179.439 199.688 179.823 198.44 180.592 197.672 181.744 197.672 181.936 196.903 183.279 195.367 185.775 194.407 187.503 194.12 188.943 194.504 190.096 Z M114.729 188.08 C118.185 185.968 121.16 181.936 123.656 175.984 125.384 172.144 124.231 168.976 120.199 166.48 118.279 167.248 116.841 168.976 115.881 171.664 114.345 175.504 113.528 177.616 113.432 178 113.336 178.384 113.097 179.632 112.713 181.744 112.521 183.472 112.521 184.72 112.713 185.488 112.905 186.832 113.577 187.696 114.729 188.08 Z M224.744 182.32 C229.928 181.168 233.288 177.808 234.824 172.24 233.864 171.28 233.385 170.801 233.385 170.801 229.353 172.337 226.472 176.176 224.744 182.32 Z M87.367 174.545 C90.631 173.777 93.753 171.519 96.729 167.775 99.705 164.031 101.191 161.104 101.191 158.992 101.191 157.648 100.617 156.976 99.465 156.976 98.121 156.976 96.391 157.599 94.279 158.847 92.167 160.095 90.824 161.2 90.248 162.16 86.984 165.04 86.023 169.169 87.367 174.545 Z M197.672 173.68 C203.816 171.375 207.463 167.92 208.615 163.312 208.423 162.928 208.041 162.736 207.465 162.736 207.273 162.928 205.161 164.176 201.129 166.48 198.633 168.016 197.385 169.744 197.385 171.664 197.385 172.24 197.48 172.911 197.672 173.68 Z M108.969 170.224 C112.809 166.384 114.729 160.144 114.729 151.504 114.537 150.544 114.055 149.296 113.287 147.76 111.943 147.568 110.887 148.336 110.119 150.064 109.351 151.792 108.68 153.425 108.104 154.961 107.912 155.729 107.576 157.264 107.096 159.568 106.616 161.872 106.377 163.697 106.377 165.041 106.377 167.345 107.241 169.072 108.969 170.224 Z M227.336 167.056 C232.904 164.176 235.977 160.527 236.553 156.111 L235.977 155.248 C230.601 156.784 227.72 160.72 227.336 167.056 Z M200.264 158.416 C206.024 156.496 209.863 154.289 211.783 151.793 210.631 150.641 208.519 149.872 205.447 149.488 204.295 150.832 203.144 152.224 201.992 153.664 200.84 155.104 200.264 156.688 200.264 158.416 Z M92.264 154.096 C92.84 154.096 93.608 153.665 94.568 152.801 95.528 151.937 96.295 151.504 96.871 151.504 96.871 147.28 95.625 144.304 93.129 142.576 90.249 146.224 89.575 149.776 91.111 153.232 91.495 153.808 91.88 154.096 92.264 154.096 Z M226.955 153.902 C227.185 153.911 227.407 153.88 227.623 153.808 229.351 152.848 231.081 151.744 232.809 150.496 234.537 149.248 235.4 147.664 235.4 145.744 234.824 144.016 233.289 143.152 230.793 143.152 229.065 144.88 227.143 147.761 225.031 151.793 224.839 152.561 225.08 153.135 225.752 153.519 226.172 153.759 226.573 153.887 226.955 153.902 Z M102.92 148.912 C104.648 148.528 105.801 147.185 106.377 144.881 107.145 141.617 107.72 139.697 108.104 139.121 108.488 138.545 108.68 137.871 108.68 137.103 108.68 134.607 106.76 133.744 102.92 134.512 101.576 135.471 100.425 137.681 99.465 141.137 99.849 143.633 100.136 145.073 100.328 145.457 100.904 146.993 101.768 148.144 102.92 148.912 Z M217.963 146.953 C220.371 147.011 221.576 145.168 221.576 141.424 221.576 140.272 220.615 139.695 218.695 139.695 215.431 139.695 213.224 140.464 212.072 142 212.072 142.96 212.649 143.872 213.801 144.736 214.953 145.6 215.72 146.223 216.104 146.607 216.788 146.823 217.407 146.939 217.963 146.953 Z" fill="#ffffff" fill-opacity="1" stroke="none"/>
</svg>
